<?xml version="1.0" standalone="no"?>
<!DOCTYPE svg PUBLIC "-//W3C//DTD SVG 20010904//EN"
 "http://www.w3.org/TR/2001/REC-SVG-20010904/DTD/svg10.dtd">
<svg version="1.0" xmlns="http://www.w3.org/2000/svg"
 width="900.000000pt" height="721.000000pt" viewBox="0 0 900.000000 721.000000"
 preserveAspectRatio="xMidYMid meet">
<g transform="translate(0.000000,721.000000) scale(0.100000,-0.100000)"
fill="#111" stroke="none">
<path d="M0 3605 l0 -3605 4500 0 4500 0 0 760 0 759 -52 57 c-29 31 -93 106
-143 167 -112 138 -161 172 -246 170 -66 -2 -246 -28 -300 -43 -39 -11 -89
-45 -89 -61 0 -6 8 -5 21 1 11 6 25 9 32 7 19 -7 -53 -35 -125 -48 -81 -15
-125 -7 -173 31 -59 47 -100 53 -73 11 10 -16 10 -23 0 -33 -9 -9 -22 -8 -59
5 -27 9 -62 17 -78 17 -50 0 -77 25 -73 68 3 36 5 38 62 56 52 17 69 18 135 8
83 -12 105 -4 77 26 -34 38 -214 56 -281 28 -19 -8 -63 -45 -97 -82 -66 -70
-111 -97 -146 -87 -12 3 -30 2 -39 -2 -36 -14 81 -36 138 -25 121 23 349 -80
349 -159 0 -31 -30 -59 -83 -76 -59 -19 -77 -37 -77 -76 0 -38 -66 -133 -109
-157 -20 -11 -68 -29 -108 -41 -39 -12 -85 -33 -102 -47 -17 -14 -39 -24 -48
-22 -10 2 -49 44 -88 94 -38 50 -121 151 -184 225 -63 74 -138 170 -167 214
-32 49 -83 107 -131 150 -43 38 -107 97 -143 131 -37 36 -92 75 -129 93 -70
34 -98 61 -76 74 13 7 53 -7 143 -51 50 -24 53 -19 13 23 -17 16 -53 75 -80
130 -28 55 -65 124 -82 153 -17 29 -29 55 -26 58 13 13 45 -19 77 -76 19 -34
36 -57 38 -51 2 6 -9 32 -24 59 -85 146 -85 152 -33 229 27 39 77 139 241 483
30 63 72 135 92 159 21 25 49 66 62 93 13 26 29 48 34 48 5 0 23 -20 39 -44
17 -24 51 -62 76 -84 47 -42 152 -98 162 -88 4 3 4 7 2 9 -2 2 -26 20 -54 39
-27 20 -71 58 -97 85 -46 48 -96 129 -85 139 11 12 75 -17 115 -52 23 -19 62
-69 88 -112 71 -115 100 -148 149 -172 51 -25 195 -41 195 -22 0 7 -12 14 -27
17 -64 14 -180 59 -210 81 -17 13 -48 52 -69 86 -55 92 -90 135 -142 170 -59
40 -84 66 -77 78 11 18 26 10 81 -42 30 -28 57 -48 60 -45 4 3 -16 37 -43 74
-78 105 -89 133 -53 133 23 0 51 -41 77 -110 21 -57 40 -80 68 -80 31 0 41
-15 59 -93 19 -80 34 -113 72 -150 28 -28 47 -30 24 -2 -23 28 -2 28 45 1 51
-30 62 -19 14 15 -34 24 -89 103 -89 128 0 21 32 -10 100 -99 41 -53 72 -84
109 -103 28 -16 51 -25 51 -20 0 4 -22 27 -48 49 -49 43 -130 150 -120 160 19
19 204 -99 319 -204 76 -69 189 -138 264 -162 88 -28 259 -126 349 -201 157
-132 392 -410 491 -583 28 -48 66 -114 85 -148 41 -68 139 -194 158 -202 9 -4
12 530 12 2654 l0 2660 -1194 0 -1194 0 -6 -25 c-9 -34 -67 -90 -126 -120 -91
-46 -108 -19 -19 30 34 18 47 31 41 37 -13 13 -311 12 -449 -2 -116 -11 -156
-25 -197 -68 -16 -17 -42 -34 -58 -38 -29 -6 -58 -32 -131 -118 -29 -34 -40
-39 -92 -45 -52 -7 -57 -9 -36 -17 25 -11 32 -8 -157 -80 -107 -41 -226 -32
-299 22 -21 15 -23 15 -23 0 0 -17 14 -33 68 -78 l32 -26 -36 -54 c-97 -143
-221 -272 -351 -362 -68 -47 -94 -72 -113 -109 -14 -26 -28 -47 -32 -47 -4 0
-8 15 -10 33 l-3 32 -63 -75 c-34 -41 -65 -86 -68 -100 -2 -14 -11 -45 -20
-70 -34 -100 -43 -130 -36 -130 4 0 16 23 27 51 19 48 55 95 55 71 0 -6 -11
-46 -26 -88 -14 -42 -29 -115 -35 -162 -5 -48 -12 -95 -15 -104 -3 -10 -1 -18
5 -18 6 0 11 7 11 15 0 28 42 105 57 105 20 0 13 -18 -62 -180 -63 -134 -98
-229 -111 -296 -10 -55 3 -39 26 33 25 78 72 174 94 192 14 12 16 10 16 -10 0
-13 -16 -91 -36 -174 -27 -113 -38 -180 -41 -270 -3 -66 -2 -117 1 -114 4 4
11 47 16 96 5 50 12 98 16 107 16 43 24 4 24 -121 1 -139 26 -331 49 -369 9
-15 10 -11 5 22 -5 30 -1 51 14 80 16 31 22 36 27 22 4 -9 1 -41 -5 -70 -19
-85 -48 -243 -45 -246 2 -2 12 16 23 40 l19 43 25 -56 c14 -31 30 -59 34 -62
5 -3 9 50 9 116 0 119 1 124 33 186 48 91 57 74 56 -99 0 -77 3 -137 7 -135 4
3 15 36 24 75 9 39 21 73 26 76 18 11 68 -154 85 -281 l8 -60 7 95 c5 70 17
122 42 195 43 119 85 280 94 353 3 28 10 52 14 52 30 0 -9 -238 -66 -403 -35
-102 -49 -225 -35 -303 13 -79 28 -113 107 -253 35 -62 62 -116 58 -119 -12
-12 -108 95 -132 148 -25 55 -59 100 -76 100 -5 0 0 -15 11 -32 11 -18 32 -66
46 -106 31 -88 34 -178 10 -339 -11 -74 -15 -140 -11 -210 3 -57 2 -103 -3
-103 -13 0 -33 109 -26 149 7 45 -10 221 -22 233 -5 5 -9 -14 -9 -49 1 -43 -6
-70 -25 -104 -21 -40 -26 -64 -32 -175 -7 -126 -10 -143 -22 -131 -14 13 -16
205 -4 258 7 30 14 65 15 79 1 14 5 41 9 60 7 34 6 34 -10 15 -25 -31 -62
-115 -90 -207 -19 -60 -27 -115 -31 -200 -6 -135 0 -176 23 -157 18 15 18 15
43 -46 18 -44 20 -47 20 -21 1 29 44 96 61 96 5 0 29 -40 53 -89 24 -48 63
-113 86 -143 22 -30 41 -58 41 -61 0 -4 -22 -40 -49 -81 -61 -94 -159 -292
-206 -417 -29 -78 -53 -119 -126 -217 -50 -67 -97 -122 -105 -122 -7 0 -29 24
-49 53 -19 28 -47 66 -61 82 l-27 30 22 -35 c47 -76 72 -134 78 -178 7 -67
-20 -207 -71 -359 -55 -168 -104 -248 -169 -282 -44 -22 -51 -23 -88 -11 -48
16 -119 2 -187 -37 -71 -40 -249 -219 -309 -309 -60 -92 -92 -114 -170 -115
-86 0 -203 -24 -223 -45 -11 -11 -30 -40 -42 -64 -13 -25 -31 -46 -40 -48 -10
-2 -46 8 -81 22 -169 68 -382 162 -467 208 -142 77 -262 134 -348 168 -90 35
-114 55 -187 159 -99 142 -184 206 -330 250 -62 18 -77 28 -130 83 -33 35 -86
87 -117 116 -32 29 -58 61 -58 71 0 23 -48 61 -112 89 -60 26 -82 69 -132 250
-61 227 -121 327 -228 381 -85 44 -94 53 -144 153 -55 110 -58 155 -14 245 16
33 48 110 70 170 110 303 153 403 170 403 14 0 12 -58 -4 -115 -7 -28 -52
-144 -100 -260 -76 -185 -86 -217 -86 -272 0 -51 4 -66 25 -92 14 -16 42 -35
63 -42 166 -53 262 -160 383 -424 71 -155 186 -325 288 -424 108 -105 285
-247 421 -338 58 -39 137 -99 176 -134 150 -138 225 -184 592 -369 397 -200
389 -202 577 85 44 66 109 176 145 245 36 69 106 185 155 258 168 249 194 295
221 376 15 45 46 119 70 166 23 47 59 144 79 215 88 307 173 474 346 680 117
139 165 239 89 185 -15 -11 -32 -20 -37 -20 -5 0 -5 35 -1 78 8 89 9 173 1
155 -11 -29 -23 -9 -23 40 0 77 -28 274 -50 359 -118 437 -124 477 -107 623 9
72 0 84 -13 18 -33 -164 -90 -326 -90 -254 0 13 6 49 14 80 20 77 31 179 18
166 -5 -5 -17 -35 -27 -65 -19 -62 -41 -100 -55 -100 -6 0 -10 38 -10 89 0 92
20 203 46 252 8 15 14 36 13 46 0 10 -25 -30 -55 -89 -30 -60 -57 -108 -61
-108 -3 0 -3 43 0 95 4 62 3 94 -3 90 -6 -3 -10 -12 -10 -19 0 -15 -48 -62
-56 -54 -3 4 4 50 15 105 11 54 25 159 31 233 11 153 34 381 55 547 12 98 20
123 61 205 95 190 206 347 307 433 22 19 39 35 36 35 -8 0 -114 -41 -138 -53
-13 -6 -50 -46 -82 -88 -54 -72 -117 -119 -157 -119 -17 0 -16 3 19 83 27 60
31 79 26 124 -5 48 -3 58 29 104 19 28 34 53 34 56 0 2 -17 -6 -39 -18 -62
-35 -71 -18 -17 32 118 109 153 149 181 204 34 68 143 232 171 257 46 41 169
76 204 58 16 -9 18 -15 10 -36 -18 -46 -10 -49 22 -9 59 73 122 126 191 161
37 19 67 41 67 49 0 33 -70 6 -154 -59 -33 -25 -73 -48 -90 -51 -17 -2 -66
-11 -108 -18 -43 -8 -78 -10 -78 -6 0 16 96 53 178 68 94 18 122 40 50 42 -23
0 -36 3 -28 6 8 3 29 12 47 20 21 10 43 12 65 8 31 -7 31 -6 -36 66 -74 80
-102 117 -94 125 10 10 57 -8 109 -42 29 -19 63 -34 75 -34 12 0 59 19 104 43
77 39 88 42 183 47 87 4 102 8 105 23 3 15 -7 17 -90 18 l-93 1 45 14 c25 7
72 20 105 28 53 12 -267 14 -2627 15 l-2688 1 0 -3605z m7585 3496 c16 -7 9
-10 -30 -16 -93 -13 -160 -30 -158 -40 1 -6 25 -13 53 -16 93 -12 65 -19 -79
-19 -139 0 -142 0 -150 -23 -7 -18 -35 -35 -106 -65 -53 -23 -104 -42 -114
-42 -19 0 -41 18 -41 35 0 24 144 82 390 158 113 35 193 44 235 28z m-99 -170
c-3 -5 -49 -16 -101 -26 -52 -9 -95 -20 -95 -25 0 -4 41 -16 92 -26 l91 -19
-47 -13 c-47 -13 -100 -57 -142 -116 l-20 -30 -36 22 c-47 29 -118 107 -118
129 1 20 114 76 197 99 55 14 187 18 179 5z m274 -62 c73 -16 133 -41 118 -49
-7 -4 -53 -10 -103 -14 -82 -6 -94 -4 -142 18 -79 37 -70 54 27 55 30 0 75 -4
100 -10z m-8 -169 c56 -21 158 -80 158 -92 0 -4 -17 -8 -37 -10 -37 -3 -36 -4
40 -32 42 -15 80 -32 83 -37 8 -13 -15 -11 -61 6 -96 34 -95 9 1 -37 35 -17
64 -33 64 -36 0 -2 -25 -2 -55 1 -30 3 -55 4 -55 2 0 -2 27 -16 60 -31 64 -28
82 -50 28 -32 -18 6 -53 12 -78 14 l-45 4 70 -35 70 -35 -42 4 c-24 2 -43 3
-43 1 0 -2 28 -19 63 -38 34 -20 78 -53 98 -74 39 -40 84 -121 74 -131 -3 -3
-29 4 -58 17 -28 12 -73 29 -98 37 -26 8 -76 34 -113 59 -74 51 -103 59 -63
17 68 -71 3 -39 -188 93 -69 47 -125 92 -125 99 0 19 26 27 64 22 17 -3 51 -8
75 -11 l45 -6 -19 21 c-10 11 -38 26 -62 32 -68 17 -53 32 25 25 37 -3 76 -9
87 -13 18 -7 18 -6 7 9 -25 30 -117 57 -197 57 -118 0 -122 12 -10 34 58 11
143 20 202 20 l102 1 -52 23 c-29 13 -76 33 -104 43 -29 11 -56 25 -59 31 -10
16 87 1 148 -22z m-1140 -197 c40 -42 101 -135 172 -263 26 -47 65 -114 87
-149 46 -72 43 -94 -6 -38 -40 46 -51 48 -29 5 19 -36 46 -130 39 -136 -14
-14 -47 47 -85 154 -33 94 -78 188 -154 323 -42 73 -76 135 -76 137 0 13 21
-1 52 -33z m664 -48 c26 -20 61 -43 78 -52 17 -9 63 -38 103 -64 72 -49 117
-67 72 -29 -45 37 -6 20 95 -42 121 -75 183 -134 258 -248 42 -64 78 -103 142
-155 83 -67 98 -85 75 -85 -11 0 -8 -25 7 -64 17 -43 -33 -6 -126 95 -56 61
-132 139 -168 173 -65 61 -168 136 -185 136 -5 0 14 -25 41 -55 65 -71 292
-432 292 -464 0 -6 -30 0 -67 14 -36 14 -68 24 -69 22 -2 -2 15 -28 38 -58 49
-65 100 -172 121 -254 22 -85 59 -166 65 -140 6 26 -24 163 -55 250 -40 115
-40 114 -4 80 18 -16 52 -71 76 -121 24 -50 58 -113 74 -140 17 -26 31 -51 31
-56 0 -20 -32 9 -65 59 -20 30 -38 53 -41 51 -2 -3 10 -29 26 -60 54 -100 62
-133 71 -313 4 -93 10 -181 11 -195 2 -16 -2 -25 -14 -28 -30 -6 -102 73 -156
171 -29 51 -59 102 -68 113 -15 19 -16 19 -9 -1 4 -11 13 -49 21 -85 18 -83
41 -154 67 -205 17 -33 20 -56 19 -134 -1 -52 -4 -97 -7 -100 -3 -2 -11 1 -17
7 -7 7 -17 12 -22 12 -6 0 14 -25 44 -55 51 -52 53 -55 28 -55 -14 0 -49 16
-77 35 -56 39 -65 36 -24 -7 l27 -28 -30 0 c-16 0 -50 10 -74 23 -40 20 -50
32 -89 112 -62 126 -101 243 -92 269 15 38 35 22 61 -49 44 -119 40 -111 50
-95 7 12 18 6 55 -30 45 -44 61 -44 26 1 -39 51 -82 159 -63 159 5 0 19 -11
32 -25 13 -14 31 -25 41 -25 10 0 31 -17 48 -37 32 -39 43 -35 15 6 -21 29
-44 115 -44 166 -1 69 -69 308 -106 373 -26 44 -23 53 8 25 17 -15 18 -15 18
8 0 31 -33 70 -95 114 -50 35 -50 44 0 25 40 -15 28 4 -29 48 -38 28 -59 56
-90 117 -63 123 -248 294 -338 312 l-33 6 32 -36 c31 -35 82 -171 70 -183 -3
-3 -29 23 -57 58 -29 35 -69 78 -89 97 -20 19 -56 52 -80 75 -45 42 -101 112
-101 128 0 13 27 9 40 -7 18 -22 32 -18 25 8 -4 15 9 6 45 -32 27 -30 50 -50
50 -44 0 6 -34 59 -75 117 -95 137 -91 130 -67 117 12 -6 40 -35 64 -63 68
-83 173 -188 188 -188 9 0 7 7 -7 23 -12 12 -32 45 -46 73 -23 45 -132 177
-175 211 -9 7 -13 16 -9 19 8 8 46 -16 108 -68 91 -76 61 -34 -56 78 l-120
115 50 -4 c28 -3 64 -8 80 -11 17 -3 24 -3 18 0 -7 3 -13 10 -13 15 0 9 33 5
120 -17 30 -8 61 -14 70 -14 21 1 -30 29 -52 30 -10 0 -18 4 -18 9 0 6 12 6
32 0 41 -11 61 -12 54 0 -3 4 -32 16 -63 24 -32 9 -74 30 -93 46 l-35 30 42 1
c34 0 53 -7 89 -35z m-705 -140 c34 -75 50 -76 25 0 -9 25 -16 56 -16 68 l1
22 18 -22 c10 -12 26 -57 36 -100 10 -43 35 -114 56 -158 20 -44 58 -127 84
-185 25 -58 77 -168 115 -245 63 -128 100 -226 100 -263 0 -63 -147 211 -214
398 -44 123 -92 247 -120 310 -35 82 -27 25 13 -91 41 -115 91 -281 91 -299 0
-64 -117 168 -174 346 -24 76 -47 158 -51 182 -14 88 -20 35 -16 -148 2 -122
0 -190 -7 -190 -18 0 -22 30 -23 223 -1 175 3 223 18 267 5 16 4 18 64 -115z
m-1511 -137 c0 -40 -9 -125 -20 -188 -11 -63 -20 -118 -20 -122 0 -20 -30 -5
-36 18 -8 32 3 169 22 259 20 96 23 105 40 105 11 0 14 -16 14 -72z m2875 -88
c49 -39 111 -84 137 -101 26 -17 48 -33 48 -34 0 -2 -16 -1 -37 2 -26 4 -34 3
-29 -5 4 -7 13 -12 19 -12 7 0 41 -18 77 -41 l65 -41 -46 5 c-73 7 -181 86
-268 196 -101 128 -96 133 34 31z m-120 -156 c32 -24 195 -215 195 -228 0 -3
-12 -6 -26 -6 -24 0 -23 -3 29 -60 43 -48 59 -76 77 -133 13 -39 25 -78 27
-84 3 -7 -2 -13 -11 -13 -10 0 -35 40 -71 115 -30 64 -99 182 -153 263 -115
172 -115 172 -107 172 4 0 22 -12 40 -26z m-1184 -177 c31 -37 83 -108 115
-157 62 -94 83 -114 58 -55 -30 72 31 20 65 -55 15 -33 21 -66 21 -122 0 -43
-4 -78 -8 -78 -15 0 -41 35 -57 76 l-15 39 5 -42 c9 -71 63 -171 133 -245 25
-27 31 -38 21 -41 -27 -8 -160 -27 -188 -27 -16 0 -36 -3 -45 -6 -27 -10 -18
-24 17 -25 46 0 102 -22 102 -38 0 -26 -53 -35 -125 -21 -51 10 -75 10 -102 1
-19 -6 -42 -9 -51 -5 -10 3 -17 2 -17 -4 0 -11 19 -19 151 -61 53 -17 111 -31
129 -31 41 0 83 25 104 61 34 57 113 28 135 -48 8 -27 16 -189 12 -248 0 -12
-23 -55 -49 -98 -47 -73 -49 -81 -55 -166 -4 -58 -16 -113 -31 -155 -14 -36
-21 -66 -17 -66 16 0 71 70 77 98 8 39 24 75 30 69 3 -3 9 -35 15 -72 6 -42
18 -80 34 -103 33 -48 32 -66 -5 -92 -32 -23 -37 -45 -19 -95 15 -40 5 -95
-23 -125 -21 -22 -22 -22 -35 -4 -12 15 -13 48 -8 169 7 169 4 171 -57 50 -96
-189 -266 -453 -338 -526 -103 -103 -213 -137 -388 -119 -182 19 -258 52 -385
165 -65 57 -159 197 -207 309 -11 27 -23 46 -27 43 -8 -8 26 -93 110 -272 82
-175 118 -265 108 -265 -28 0 -68 73 -132 241 -104 274 -123 318 -198 447 -83
142 -85 148 -85 242 -1 65 -3 75 -18 72 -11 -2 -26 12 -42 37 -37 58 -43 56
-38 -12 2 -43 13 -82 35 -127 35 -75 46 -170 37 -349 -4 -85 -8 -106 -23 -115
-14 -8 -20 -8 -27 4 -12 19 -13 145 -1 207 15 75 20 133 12 133 -6 0 -49 -122
-76 -218 -10 -35 -24 -16 -18 26 3 20 16 78 30 127 27 97 27 157 0 230 -73
194 -69 172 -57 326 17 224 32 222 79 -10 31 -157 55 -222 39 -110 -7 51 -4
79 17 165 32 133 32 233 1 417 -14 78 -28 168 -32 200 -3 31 -9 57 -13 57 -4
0 -17 -51 -30 -112 -28 -136 -38 -165 -52 -151 -17 17 7 161 47 271 20 56 40
102 45 102 5 0 11 -11 15 -25 10 -39 24 -19 24 33 0 51 17 93 39 100 11 4 13
-3 7 -34 -4 -22 -9 -66 -11 -99 l-5 -60 13 45 c12 41 14 43 21 21 5 -13 8 -97
7 -185 -1 -171 5 -234 21 -218 8 8 27 158 28 221 0 50 19 5 22 -54 3 -53 4
-56 10 -25 4 19 10 62 15 95 4 33 13 60 18 60 6 0 15 -22 22 -49 16 -65 23
-69 23 -14 0 81 58 229 105 268 27 22 26 5 -1 -54 -33 -73 -25 -84 13 -15 27
50 76 99 88 87 3 -3 -6 -25 -20 -49 -36 -64 -31 -64 26 -3 55 58 85 70 74 32
-24 -89 -96 -195 -249 -372 -27 -31 -46 -60 -42 -64 10 -9 236 225 338 350 58
71 86 98 103 98 22 0 88 -63 127 -120 26 -39 23 -1 -6 62 -14 29 -28 67 -32
83 -14 57 26 6 71 -91 57 -121 80 -140 50 -40 -19 64 -20 126 -1 126 19 0 70
-66 108 -138 59 -111 66 -128 93 -209 41 -127 58 -122 31 9 -14 62 -51 138
-77 153 -17 11 -49 86 -49 118 0 41 24 34 61 -18 18 -25 36 -45 41 -45 10 0
-27 74 -53 109 -21 26 -64 160 -55 169 15 14 60 -51 122 -174 37 -74 70 -134
74 -134 5 0 -8 42 -27 93 -54 144 -63 177 -48 177 21 0 79 -100 120 -205 46
-121 88 -207 109 -224 22 -18 20 -26 -9 -39 -38 -17 -110 -15 -125 4 -8 8 -21
19 -31 24 -15 9 -16 6 -9 -26 5 -19 3 -65 -2 -103 -12 -73 -6 -119 17 -127 9
-4 34 11 61 34 48 43 79 56 157 67 48 6 66 25 23 25 -29 0 -54 26 -39 41 6 6
38 9 72 7 34 -1 61 0 61 4 0 4 -25 26 -56 49 -60 44 -84 85 -84 143 0 55 -18
52 -26 -4 -4 -27 -10 -50 -14 -50 -14 0 -42 107 -56 218 -11 85 -24 134 -50
192 -19 43 -34 86 -34 95 0 32 34 10 91 -58z m496 -88 c82 -132 85 -138 110
-248 24 -103 55 -176 119 -281 64 -104 129 -330 96 -330 -15 0 -69 108 -125
251 -25 64 -57 140 -72 168 -31 62 -58 147 -80 250 -16 76 -41 141 -55 141 -5
0 -5 -15 0 -32 5 -18 10 -66 12 -105 4 -87 -8 -94 -43 -28 -13 25 -26 45 -29
45 -4 0 -4 -16 -2 -35 2 -19 0 -35 -5 -35 -10 0 -33 43 -33 60 0 5 -20 57 -45
114 -49 116 -49 116 -35 116 5 0 25 -24 43 -52 58 -91 92 -105 58 -24 -22 49
-19 56 11 29 26 -23 32 -10 14 26 -9 16 -16 37 -16 46 0 33 26 7 77 -76z
m-2277 -252 c0 -7 -9 -40 -21 -72 -12 -33 -31 -111 -44 -172 -30 -144 -33
-153 -52 -153 -13 0 -15 11 -8 82 3 45 16 111 27 147 32 106 98 218 98 168z
m303 -403 c9 -47 -3 -104 -50 -234 -19 -52 -39 -107 -45 -121 -5 -15 -21 -32
-35 -38 -25 -12 -26 -11 -20 24 3 19 18 65 32 101 15 37 35 103 46 148 36 150
42 167 53 163 6 -2 14 -21 19 -43z m2511 -344 c10 -58 29 -139 42 -180 13 -41
24 -81 24 -88 0 -26 -18 -10 -44 41 l-27 52 3 -42 c2 -24 0 -43 -5 -43 -4 0
-17 19 -27 43 -20 46 -41 239 -28 260 4 7 8 8 8 1 0 -5 6 -19 14 -29 12 -16
12 -12 6 31 -9 56 -2 113 10 78 4 -10 15 -66 24 -124z m-224 -372 l31 -42 -7
42 c-4 25 -3 42 3 42 12 0 33 -44 33 -69 0 -34 48 -146 63 -149 20 -4 23 -16
37 -121 10 -77 25 -121 41 -121 18 0 78 -115 110 -209 20 -58 43 -125 52 -147
12 -32 14 -50 6 -77 -15 -56 -29 -55 -29 3 0 44 -11 71 -87 217 -62 119 -89
161 -91 145 -4 -23 29 -134 55 -187 9 -16 29 -45 46 -63 28 -28 32 -41 35
-100 5 -93 -7 -137 -39 -137 -32 0 -58 53 -59 122 0 66 -16 76 -31 21 -14 -53
-5 -121 21 -166 12 -19 19 -37 16 -39 -8 -9 -72 17 -107 43 -19 14 -71 48
-116 75 -45 28 -85 54 -88 60 -14 21 26 7 71 -26 48 -34 145 -85 164 -85 5 0
7 27 4 63 -3 35 1 96 9 142 8 43 11 88 7 99 -6 18 -11 13 -36 -34 -25 -49 -28
-65 -28 -142 1 -102 9 -101 -113 -4 -104 83 -105 91 -22 201 79 104 105 149
120 208 14 59 5 97 -46 181 -33 54 -46 106 -27 106 12 0 46 -39 71 -80 14 -23
21 -29 21 -17 0 23 -62 145 -92 183 -24 29 -48 77 -48 94 0 22 22 8 50 -32z
m-1890 -383 c26 -55 70 -161 98 -235 28 -74 62 -165 76 -202 l26 -68 -28 -6
c-36 -8 -72 -25 -72 -36 0 -4 10 -8 23 -8 33 0 83 -34 117 -81 42 -58 39 -74
-17 -102 -62 -31 -64 -55 -5 -72 23 -7 63 -30 88 -50 25 -21 46 -36 48 -34 18
21 26 59 26 118 0 64 -4 78 -46 158 -50 95 -116 244 -110 250 10 10 57 -64 76
-121 27 -82 49 -110 113 -143 29 -14 77 -42 107 -62 30 -20 69 -43 85 -50 41
-18 171 -25 220 -13 71 19 177 60 196 78 10 9 46 66 79 127 34 61 87 144 118
186 57 75 57 75 60 44 4 -42 -47 -151 -126 -272 -34 -51 -123 -216 -197 -365
-154 -309 -156 -312 -328 -415 -58 -34 -113 -72 -123 -82 -16 -18 -16 -19 14
-19 19 0 55 16 99 45 l68 45 -63 -59 c-35 -32 -100 -79 -145 -104 -119 -67
-121 -68 -119 -112 2 -41 -16 -62 -101 -123 -32 -22 -49 -43 -55 -65 -8 -31
-44 -65 -158 -147 -33 -24 -56 -52 -76 -91 -18 -37 -52 -79 -99 -123 -40 -37
-91 -91 -114 -121 -95 -122 -206 -243 -234 -255 -24 -9 -45 -9 -100 0 -74 12
-82 21 -56 56 8 10 15 22 15 27 0 13 -41 8 -114 -14 -52 -16 -87 -20 -129 -16
-100 9 -136 55 -56 72 23 5 36 0 66 -24 32 -27 63 -40 63 -27 0 2 -11 28 -25
57 -44 99 -54 338 -24 589 16 129 57 260 81 260 18 0 4 -308 -16 -360 -20 -49
-35 -230 -19 -230 5 0 24 51 42 112 29 98 35 135 42 273 9 165 18 247 38 325
24 92 95 253 149 340 l16 25 5 -23 c4 -13 10 -22 15 -20 21 6 97 98 91 107 -3
6 -22 11 -41 11 -19 0 -34 2 -34 5 0 3 11 22 24 43 23 35 42 82 34 82 -2 0
-26 -29 -52 -65 -26 -36 -54 -65 -62 -65 -21 0 -19 106 4 149 32 64 63 65 148
9 38 -26 50 -40 54 -66 3 -18 10 -33 15 -32 12 0 13 92 2 175 -10 74 -1 64 43
-45 18 -47 37 -89 41 -94 5 -5 5 45 2 111 -6 130 3 177 27 133 7 -13 12 -58
12 -104 -1 -131 29 -226 92 -286 60 -60 222 -121 240 -91 4 6 -1 14 -11 17
-37 11 -140 68 -190 106 -88 65 -109 134 -74 240 12 34 28 72 36 82 17 23 15
34 21 -126 1 -48 7 -96 13 -105 10 -17 10 -17 11 0 0 28 15 20 44 -23 14 -22
28 -40 30 -40 2 0 -1 18 -6 40 -6 22 -7 52 -3 67 8 27 9 26 25 -25 l16 -53 -2
123 c-1 104 -6 138 -31 223 -28 93 -64 196 -101 290 -12 32 -16 88 -17 279 -1
238 -1 238 19 215 10 -13 40 -69 66 -124z m-4375 -39 c28 -13 64 -38 79 -57
41 -48 76 -127 76 -173 l0 -39 -36 6 c-19 3 -56 19 -82 34 -94 57 -107 63
-154 63 -26 0 -49 -4 -53 -9 -6 -10 82 -55 177 -91 64 -24 108 -55 108 -76 0
-19 -14 -18 -31 2 -18 21 -55 39 -114 53 -27 7 -69 25 -92 41 -51 37 -60 38
-38 4 17 -26 17 -27 -4 -21 -19 5 -21 1 -21 -42 0 -50 -8 -63 -78 -123 -18
-16 -36 -44 -43 -70 -6 -24 -23 -79 -36 -123 -31 -101 -90 -321 -109 -400 -7
-33 -13 -104 -14 -158 0 -75 -3 -99 -14 -103 -15 -6 -76 20 -138 58 -20 13
-40 20 -43 16 -4 -4 10 -34 30 -67 49 -78 35 -102 -38 -65 -104 54 -147 119
-147 224 0 90 20 115 88 114 93 -1 122 -25 137 -116 7 -42 22 -50 29 -15 3 12
18 92 35 177 17 85 51 219 76 297 61 190 63 214 31 283 -41 88 -30 153 42 248
36 47 141 116 222 145 37 13 108 6 155 -17z m3855 -151 c7 -27 16 -115 20
-195 9 -163 26 -223 115 -400 25 -51 44 -94 41 -97 -3 -3 -17 2 -30 10 -22 15
-143 244 -159 302 -10 36 -18 451 -9 440 5 -5 15 -32 22 -60z m791 -387 c57
-33 93 -109 93 -199 1 -37 -2 -71 -7 -75 -4 -4 -22 6 -40 23 -17 17 -43 36
-56 43 l-23 12 31 19 c21 12 31 27 31 42 0 26 -35 84 -78 130 -21 22 -23 27
-8 27 9 0 35 -10 57 -22z m-5401 -773 c67 -57 150 -105 182 -105 43 0 127 -60
166 -118 18 -28 9 -40 -16 -21 -11 8 -48 35 -83 62 -94 70 -135 64 -173 -26
-15 -36 -18 -38 -47 -32 -70 16 0 -48 89 -81 97 -36 112 -43 112 -58 0 -18
-33 -14 -119 16 -30 10 -55 18 -56 18 -6 0 -24 -58 -30 -92 -5 -31 -10 -38
-28 -38 l-22 0 24 -19 c30 -23 24 -33 -36 -57 l-48 -19 44 -5 c25 -3 46 -10
48 -16 5 -14 -163 -57 -198 -52 -36 5 -31 62 10 122 28 40 37 46 66 46 50 0
43 14 -19 43 -66 31 -78 51 -84 139 -4 61 -2 72 22 109 25 37 27 45 20 108 -6
63 -5 69 21 99 42 50 76 44 155 -23z m795 -791 c97 -58 143 -111 129 -148 -4
-11 -13 -12 -37 -5 -43 12 -40 13 -93 -27 -45 -34 -48 -35 -61 -18 -7 10 -13
34 -13 53 0 20 -7 64 -15 99 -8 35 -13 68 -9 73 10 17 39 9 99 -27z m-488 -29
c8 -34 16 -44 78 -81 39 -23 78 -55 87 -71 47 -76 43 -222 -12 -463 -37 -162
-57 -320 -75 -608 -8 -128 -19 -241 -25 -252 -19 -35 -30 -21 -30 38 1 85 29
574 40 672 5 47 9 103 9 125 1 40 -13 75 -24 63 -16 -16 -56 -256 -65 -383
-35 -530 -49 -639 -80 -620 -6 4 -10 60 -10 126 0 120 5 172 41 472 32 262 24
308 -65 419 -62 77 -82 139 -74 231 4 46 12 65 46 110 23 30 42 57 42 61 0 5
-18 29 -41 54 -23 26 -45 57 -50 69 -22 58 30 71 85 22 39 -34 50 -32 61 8 8
34 36 66 46 56 5 -5 12 -26 16 -48z m3867 -120 c18 -18 40 -91 33 -110 -8 -20
-78 -27 -104 -9 -31 20 -32 79 -1 111 25 27 50 29 72 8z m-3356 -232 c71 -48
150 -156 150 -208 l0 -34 -58 67 c-65 74 -145 146 -203 181 -29 18 -35 26 -25
33 23 16 77 0 136 -39z m4012 -293 c8 -15 8 -47 0 -116 -11 -87 -10 -98 10
-151 13 -35 17 -59 11 -61 -5 -2 -7 -10 -4 -19 13 -33 -19 0 -35 36 l-15 36
-8 -43 c-9 -47 -45 -126 -66 -144 -10 -8 -13 -2 -12 28 0 38 15 129 18 109 1
-5 6 -3 11 5 7 12 10 8 10 -14 0 -16 2 -27 5 -24 10 9 35 172 35 222 l0 49
-30 -38 c-23 -29 -30 -48 -30 -80 0 -23 -3 -57 -6 -74 -6 -28 -8 -29 -19 -14
-12 16 -13 15 -18 -3 -25 -88 -37 -162 -36 -213 2 -74 -13 -101 -42 -75 -23
21 -24 41 -2 90 14 31 18 69 18 179 l0 140 50 26 c40 20 55 36 78 80 25 48 54
89 63 89 2 0 8 -9 14 -20z m3255 -509 c52 -66 63 -86 54 -97 -18 -22 -61 -16
-111 15 -36 23 -49 39 -57 68 -15 53 -14 79 5 97 22 22 33 14 109 -83z m-2671
43 c50 -19 -13 -66 -123 -90 -106 -24 -178 -14 -250 35 -12 7 -12 13 -3 24 10
11 32 14 100 10 58 -3 104 1 137 11 54 15 114 20 139 10z m-1497 -76 c12 -13
37 -55 56 -94 24 -47 54 -87 90 -120 66 -60 110 -125 101 -147 -5 -14 -21 -17
-84 -17 -43 0 -90 4 -103 9 -14 6 -41 36 -63 72 -52 86 -90 126 -124 134 -17
4 -30 8 -30 11 0 7 82 139 98 157 20 23 34 22 59 -5z"/>
<path d="M7100 6332 c0 -4 16 -18 36 -31 20 -14 48 -41 62 -60 87 -120 114
-150 179 -198 39 -29 91 -76 115 -104 122 -147 152 -169 228 -169 43 0 80 14
80 30 0 6 -20 19 -45 31 -58 27 -69 43 -24 34 31 -6 29 -3 -28 37 -33 24 -96
75 -140 113 -43 39 -105 87 -138 107 -33 20 -88 64 -121 97 -60 57 -119 95
-176 112 -15 4 -28 5 -28 1z"/>
<path d="M7690 5693 c0 -5 17 -25 39 -45 87 -85 140 -239 145 -421 3 -88 8
-123 24 -158 l20 -44 1 33 c1 17 5 32 9 32 5 0 27 -42 50 -93 76 -166 134
-206 69 -46 -43 104 -48 138 -15 99 l21 -25 -6 25 c-5 28 -52 169 -99 300 -32
92 -91 199 -146 269 -43 53 -112 99 -112 74z"/>
<path d="M5865 5207 c-105 -27 -96 -35 37 -33 92 1 130 -3 140 -12 7 -7 15
-41 18 -75 5 -61 5 -62 38 -65 40 -4 45 -37 7 -54 -14 -6 -25 -15 -25 -20 0
-4 -17 -8 -39 -8 -21 0 -62 -4 -91 -10 -42 -8 -65 -6 -128 10 -42 11 -84 20
-94 20 -31 0 -20 -18 20 -30 20 -7 53 -21 72 -31 76 -40 201 -52 263 -25 18 7
53 37 80 65 26 28 52 51 57 51 15 0 12 26 -5 40 -8 7 -15 19 -15 26 0 17 42
18 59 2 10 -11 15 -9 27 6 24 33 -10 75 -91 116 -65 32 -78 35 -175 37 -60 1
-126 -3 -155 -10z"/>
<path d="M5381 5202 c-1 -7 6 -56 15 -110 9 -57 17 -177 19 -292 3 -204 15
-281 76 -488 27 -90 37 -87 15 5 -39 161 -50 267 -51 463 0 172 -3 203 -22
265 -12 39 -29 93 -37 120 -7 28 -14 44 -15 37z"/>
<path d="M6615 4320 c4 -6 -14 -10 -47 -10 -29 0 -69 -5 -88 -11 -19 -6 -85
-14 -146 -19 -117 -9 -161 -23 -188 -62 -23 -33 -11 -34 36 -2 41 27 50 29
209 37 141 7 171 6 203 -7 39 -16 66 -62 66 -113 0 -20 3 -24 11 -16 7 7 10
41 8 91 -3 61 -9 85 -23 101 -19 21 -53 30 -41 11z"/>
<path d="M6210 4151 c0 -6 -11 -11 -24 -11 -26 0 -87 -38 -94 -58 -3 -10 5 -9
29 4 28 14 64 17 189 19 167 2 310 13 310 25 0 4 -75 10 -167 14 -93 3 -185 9
-205 12 -25 5 -38 3 -38 -5z"/>
<path d="M6535 3782 c-61 -66 -84 -78 -174 -94 -71 -12 -77 -12 -176 19 l-20
6 20 -23 c31 -35 77 -50 155 -50 82 0 112 12 163 69 40 44 92 120 86 124 -2 2
-26 -21 -54 -51z"/>
<path d="M7500 3768 c-35 -56 -66 -112 -68 -125 -4 -24 44 -179 59 -188 5 -4
9 27 9 73 0 61 8 106 36 200 19 68 34 127 32 133 -2 6 -32 -36 -68 -93z"/>
<path d="M5264 7069 c-28 -4 -88 -20 -133 -34 -46 -15 -110 -29 -144 -33 -101
-12 -80 -45 29 -45 32 0 105 16 190 42 77 23 150 45 163 49 14 4 25 12 25 17
1 13 -66 15 -130 4z"/>
<path d="M5601 7002 c-18 -13 -46 -17 -105 -17 -86 0 -99 -6 -273 -113 l-38
-23 63 6 c59 6 62 5 62 -16 0 -21 1 -21 20 4 40 51 77 69 161 78 45 5 93 16
109 24 27 14 60 51 60 67 0 14 -34 8 -59 -10z"/>
<path d="M4865 6669 c-90 -93 -155 -124 -155 -72 l0 27 -28 -34 c-27 -32 -30
-33 -68 -23 -21 5 -45 8 -52 5 -8 -2 -34 -36 -58 -74 -53 -82 -118 -154 -174
-193 -45 -31 -52 -46 -17 -37 30 7 62 28 133 88 38 32 77 55 105 62 25 6 62
23 83 37 21 14 66 40 99 57 65 32 197 155 197 183 0 26 -25 16 -65 -26z"/>
<path d="M4984 6619 c-32 -23 -82 -62 -109 -88 -28 -25 -110 -97 -182 -160
-72 -62 -134 -120 -137 -128 -3 -8 -3 -13 1 -11 49 22 168 87 203 111 64 44
320 287 320 303 0 25 -36 15 -96 -27z"/>
<path d="M4384 6233 c-140 -141 -183 -200 -184 -248 0 -16 3 -15 19 10 27 44
78 88 144 125 71 39 120 86 148 143 12 23 30 54 40 69 24 33 24 48 0 48 -12 0
-78 -59 -167 -147z"/>
</g>
</svg>
